<svg xmlns="http://www.w3.org/2000/svg" viewBox="0 0 98.1 108"><defs><style>.cls-1{fill:none;}.cls-2{fill:#fff;}.cls-3{fill:#ff5e2b;}</style></defs><title>Asset 1</title><g id="Layer_2" data-name="Layer 2"><g id="Object"><rect class="cls-1" x="36.33" y="6.39" width="24.65" height="2.21" transform="translate(-0.06 0.38) rotate(-0.45)"/><path class="cls-2" d="M61,8.51l6.27,0,0-5.35A3.18,3.18,0,0,0,66.28.9,3.12,3.12,0,0,0,64.06,0L33.14.24A3.14,3.14,0,0,0,30,3.4l0,5.35,6.27-.05,0-2.21L61,6.3Z"/><path class="cls-2" d="M7.49,28.87a3.33,3.33,0,0,0-3.24,4L18.13,105.3a3.35,3.35,0,0,0,3.3,2.7l56.11-.44a3.32,3.32,0,0,0,3.25-2.73L94,32.15a3.32,3.32,0,0,0-3.3-3.93Zm23.93,74.21a3.3,3.3,0,0,1-3.78-2.74L18.1,40.61a3.31,3.31,0,0,1,6.53-1L34.16,99.3A3.3,3.3,0,0,1,31.42,103.08Zm18.28.24A3.32,3.32,0,0,1,46.36,100l-.47-60.49a3.31,3.31,0,1,1,6.61,0L53,100A3.32,3.32,0,0,1,49.7,103.32Zm30.61-63.2L71.71,100a3.31,3.31,0,0,1-6.55-.94l8.6-59.87a3.31,3.31,0,0,1,6.55.94Z"/><path class="cls-3" d="M.08,25.78l98-.77L98,15l-9.09.07,0-5.25a1.58,1.58,0,0,0-.47-1.1,1.56,1.56,0,0,0-1.1-.45l-20.06.16L61,8.51,36.34,8.7l-6.27.05-18.7.15a1.55,1.55,0,0,0-1.54,1.56l0,5.26L0,15.79Z"/></g></g></svg>